<svg viewBox="0 -34 491.536 491" xmlns="http://www.w3.org/2000/svg"><path d="m42.398438 295.722656h73.542968c14.027344 0 25.824219-10.707031 28.050782-25.464844l2.445312-16.207031 4.675781 19.226563c3.214844 13.214844 14.410157 22.445312 27.226563 22.445312h87.773437l20.789063-127.726562-22.519532-104.058594c-3.160156-14.601562-10.875-27.675781-21.761718-36.992188-.609375-.761718-1.402344-1.386718-2.34375-1.800781l-56.808594-24.875h-78.816406l-57.792969 24.863281c-.558594.238282-1.054687.5625-1.503906.933594l-.019531-.023437c-11.453126 9.363281-19.554688 22.820312-22.816407 37.894531l-6.261719 28.9375 11.726563 2.535156 6.261719-28.933594c1.789062-8.257812 5.324218-15.902343 10.234375-22.351562l8.261719 80.632812-15.785157 45.8125 12.015625 68.445313-5.183594 44.707031h-12.792968l-18.785156-115.410156 11.417968-52.769531-11.730468-2.535157-11.898438 54.988282 20.789062 127.726562zm47.453124-276.023437 11.972657-5.148438 25.710937 99.945313-37.683594-56.5625zm52.597657 104.605469-21.390625-83.152344 22.351562-23.265625 22.25 24.703125zm90.761719 72.199218-3.289063-28.390625 1.484375-14.507812 6.183594 17.945312zm19.445312-130.027344 22.035156 101.835938-18.785156 115.410156h-12.589844l-5.261718-45.414062 11.890624-67.734375-15.628906-45.355469 8.285156-80.855469c4.816407 6.402344 8.289063 13.957031 10.054688 22.113281zm-34.804688 101.71875 13.386719 115.527344h-52.898437c-7.261719 0-13.664063-5.460937-15.566406-13.28125l-11.886719-48.871094c-3.828125-15.746093-5.476563-31.785156-4.953125-47.5625l64.746094-103.1875v-45.539062l20.878906 9.144531zm-31.746093-153.671874 12.570312 5.503906v47.335937l-49.480469 78.863281c.597657-2.921874 1.253907-5.824218 2.007813-8.695312.300781-1.144531.613281-2.285156.9375-3.421875zm-11.832031-2.253907-4.742188 16.6875-15.027344-16.6875zm-56.730469 15.222657-3.914063-15.222657h18.539063zm-39.691407-2.628907v36.703125l58.539063 87.863282c-4.09375 24.054687-3.253906 49.269531 2.558594 73.816406l-6.824219 45.222656c-1.332031 8.839844-8.140625 15.253906-16.183594 15.253906h-60.070312l13.3125-114.875.074218-.652344-13.707031-133.738281zm-28.539062 146.6875 6.339844-18.402343 1.53125 14.96875-3.367188 29.089843zm0 0"/><path d="m491.535156 179.964844-59.804687-21.378906-4.039063 11.296874 48.175782 17.226563-56.097657 143.671875v-21.144531l32.589844-80.988281-11.132813-4.480469-21.457031 53.320312v-225.800781h-121.195312v28.3125l-4.734375 221.253906-.003906.128906c0 37.089844 25.582031 67.265626 57.023437 67.265626h62.191406c2.667969 0 4.972657-1.605469 6.058594-3.917969l.25.097656zm-89.972656-93.878906h6.207031v60.78125c-3.9375-7.90625-6.207031-17.472657-6.207031-27.101563zm6.207031-12h-71.339843v-10.398438h71.339843zm-97.195312-10.398438h13.855469v10.398438h-13.855469zm40.285156 292.960938c-24.808594 0-44.996094-24.757813-45.023437-55.203126l4.609374-215.359374h79.117188v33.679687c0 17.863281 6.328125 35.113281 16.929688 46.144531l1.277343 1.328125v189.410157zm0 0"/><path d="m452.238281 196.773438 11.132813 4.480468-6.546875 16.265625-11.128907-4.480469zm0 0"/><path d="m304.761719 367.929688c-1.472657-.828126-3.191407-1.042969-4.789063-.644532-2.992187-7.722656-10.328125-13.261718-19.117187-13.601562l-31.144531-1.207032c-10.074219-.386718-19.613282-2.132812-28.351563-5.1875-8.011719-2.800781-14.832031-6.355468-20.773437-10.8125l-43.902344-33.996093c-1.628906-1.265625-3.789063-1.695313-5.78125-1.160157-.980469.265626-1.878906.757813-2.632813 1.414063l-5.714843-1.582031-.429688-.101563c-4.65625-.9375-9.367188.046875-13.269531 2.757813-3.921875 2.726562-6.496094 6.832031-7.253907 11.558594-1.378906 8.625-3.710937 15.40625-6.582031 19.1875-5.011719 1.914062-10.753906 3.375-17.316406 4.117187-22.242187 2.527344-46.164063-6.277344-58.441406-11.753906-3.71875-1.65625-7.949219-1.574219-11.605469.230469-3.644531 1.796874-6.277344 5.09375-7.222656 9.039062-6.648438 27.792969-3.449219 47.679688-.347656 58.285156h-1.136719v28.429688h64.902343v-12h-52.902343v-4.429688h52.421875v-.019531c11.566406.152344 29.175781 3.847656 47.363281 9.96875 12.726563 4.28125 26.167969 6.453125 39.953125 6.453125h27.277344c9.296875 0 18.609375-1.050781 27.683594-3.117188 58.101562-13.25 78.710937-25.535156 79.558593-26.054687l2.882813-1.75v-18.324219c0-2.359375-1.277344-4.539062-3.328125-5.699218zm-171.3125-50.664063c.238281-1.480469 1.039062-2.757813 2.257812-3.605469 1.144531-.796875 2.519531-1.105468 3.890625-.878906l2.410156.671875c-2.300781 3.402344-5.558593 7.359375-10.019531 11.144531.558594-2.296875 1.046875-4.738281 1.460938-7.332031zm-100.484375 20.640625c.261718-.128906.789062-.304688 1.410156-.027344 13.394531 5.972656 39.605469 15.5625 64.683594 12.71875 33.398437-3.792968 49.195312-23.640625 55.472656-34.609375l38.777344 30.03125c.976562.730469 1.972656 1.433594 2.980468 2.121094l-6.910156 8.976563c-15.609375-4.917969-29.882812-5.554688-42.480468-1.878907l3.363281 11.519531c11.226562-3.273437 24.425781-2.242187 39.238281 3.0625l4.113281 1.472657 13.15625-17.09375c3.347657 1.632812 6.875 3.105469 10.628907 4.417969 9.867187 3.449218 20.578124 5.417968 31.84375 5.855468l31.148437 1.203125c4.242187.164063 7.710937 3.085938 8.722656 7.007813-10.816406 4.953125-31.535156 12.910156-66.148437 20.804687-8.191406 1.867188-16.601563 2.8125-25 2.8125h-27.277344c-12.480469 0-24.636719-1.960937-36.125-5.824219-3.464844-1.167968-6.914062-2.246093-10.324219-3.238281 2.632813-4.304687 7.113281-10.175781 14-14.832031l-6.722656-9.941406c-10.289063 6.960937-16.304687 16.0625-19.261719 21.605468-1.019531-.242187-2.027344-.476562-3.027344-.699218-2.265624-13.917969-13.90625-24.972656-28.359374-26.058594l-19.648438-1.480469c-10.957031-.824219-21.570312-4.941406-30.246094-11.65625.339844-1.695312.707032-3.421875 1.132813-5.191406.140625-.613281.546875-.921875.859375-1.078125zm-3.957032 19.523438c9.398438 5.914062 20.210938 9.53125 31.308594 10.367187l19.652344 1.476563c7.3125.550781 13.445312 5.261718 16.160156 11.683593-5-.710937-9.5625-1.089843-13.492187-1.089843h-53.367188c-.777343-6.019532-1.089843-13.53125-.261719-22.4375zm267.082032 27.546874c-7.222656 3.574219-28.773438 12.96875-73.109375 23.078126-8.199219 1.871093-16.617188 2.816406-25.015625 2.816406h-27.277344c-12.480469 0-24.636719-1.957032-36.125-5.824219-19.734375-6.640625-39.148438-10.605469-51.925781-10.605469h-49.960938c-.273437-.730468-.566406-1.59375-.867187-2.574218h50.828125c11.546875 0 29.527343 3.730468 48.097656 9.980468 12.726563 4.28125 26.167969 6.453125 39.953125 6.453125h27.277344c9.296875 0 18.605468-1.050781 27.667968-3.117187 37.382813-8.523438 59.238282-17.164063 70.457032-22.503906zm0 0"/></svg>