<svg id="line_Expand" height="512" viewBox="0 0 64 64" width="512" xmlns="http://www.w3.org/2000/svg" data-name="line Expand"><path d="m22.3486 33.166a6 6 0 1 0 8.4849 0 5.9628 5.9628 0 0 0 -8.4849 0zm7.0708 7.0713a4.0947 4.0947 0 0 1 -5.6567 0 4 4 0 1 1 5.6567 0z"/><path d="m16.6914 43.0664a3 3 0 0 0 -4.2427 4.2422l4.2427 4.2422a3 3 0 0 0 4.2427-4.2422zm2.8286 7.07a1.001 1.001 0 0 1 -1.4145 0l-4.2422-4.2422a1 1 0 0 1 1.414-1.414l4.2427 4.2425a1.0012 1.0012 0 0 1 0 1.414z"/><path d="m62.59 8.8389a.9991.9991 0 0 0 -.29-.7744l-6.364-6.3645a1.012 1.012 0 0 0 -.7749-.291 1.0014 1.0014 0 0 0 -.7285.3926l-1.75 2.3021-.6361-.6361a1 1 0 1 0 -1.4141 1.414l.8289.8289-1.2213 1.6079-1.0217-1.0215a1 1 0 0 0 -1.4141 1.414l1.2144 1.2144-1.2651 1.6647-13.3845 13.3844-1.62-1.6209a6.9994 6.9994 0 0 0 -11.59 2.7363l-.9917 2.9737a5.9914 5.9914 0 0 1 -5.6919 4.1025h-2.168a10.9 10.9 0 0 0 -7.7074 18.6074l8.6271 8.6266a10.8994 10.8994 0 0 0 18.6064-7.707v-2.168a5.9939 5.9939 0 0 1 4.103-5.6924l2.9741-.9912a6.9994 6.9994 0 0 0 2.7359-11.59l-1.6209-1.6214 13.3882-13.3876 1.6608-1.2624 1.215 1.215a1 1 0 1 0 1.414-1.4141l-1.022-1.0219 1.6072-1.2215.8294.8294a1 1 0 0 0 1.414-1.4141l-.6364-.6364 2.302-1.7493a1 1 0 0 0 .3922-.7282zm-11.25 6.6494-2.1219 2.1217-2.8281-2.8285 2.1212-2.1215 1.4143 1.414zm-16.971 11.3142 2.8284 2.8281-2.1212 2.1214-2.8286-2.8282zm1.414-1.4141 2.1217-2.1218 2.8283 2.8286-2.1215 2.1214zm3.5358-3.5359 2.1212-2.1213 2.8285 2.8281-2.1215 2.1219zm3.5355-3.5354 2.1215-2.1215 2.8282 2.8286-2.1212 2.1211zm-2.6219 14.3489a5.0006 5.0006 0 0 1 -1.9546 8.2793l-2.9741.9912a7.99 7.99 0 0 0 -5.47 7.5889v2.168a8.9 8.9 0 0 1 -15.1924 6.2929l-8.6276-8.6269a8.9007 8.9007 0 0 1 6.2929-15.1934h2.168a7.9893 7.9893 0 0 0 7.5894-5.47l.9917-2.9736a4.9991 4.9991 0 0 1 8.2788-1.9551l1.62 1.6208-2.8284 2.8284a1 1 0 0 0 0 1.4141l4.2426 4.2421a1 1 0 0 0 1.4141 0l2.8283-2.8283zm12.6114-18.5019-1.5038-1.5041-1.5041-1.504 5.4961-7.2312 4.7437 4.7432z"/></svg>